<svg width="800" height="400" viewBox="0 0 800 400" fill="none" xmlns="http://www.w3.org/2000/svg">
  <path d="M156.5,200.5c0,0-13.75-11.75-14.5-15s-1.25-6.5,0.5-8.75s5.5-5.25,5.5-5.25l3.75,1.25l3.25,0.25l1.5,1.75l-0.25,3.5l-1.25,2.5l1.25,1.5l0.25,2.5l-0.5,2.75l-1.25,2.25l-0.75,2.5l1.25,2.25l1.75,1.5l-0.25,2.5L156.5,200.5z" fill="#FFFFFF" fill-opacity="0.5"/>
  <path d="M216.5,201.5c0,0,2.75-2.25,4.25-2.5s4-0.5,4-0.5l3.5,1.25l3.25,0.25l3.5-1.5l3.75-0.75l3.5,0.5l3.25,1.5l2.5,2.25l2.25,2.5l1.5,3.25l0.5,3.5l-0.75,3.75l-1.5,3.5l-2.25,3.25l-2.5,2.5l-3.25,1.5l-3.5,0.5l-3.75-0.75l-3.5-1.5l-3.25-2.25l-2.5-2.5l-1.5-3.25l-0.5-3.5l0.75-3.75l1.5-3.5L216.5,201.5z" fill="#FFFFFF" fill-opacity="0.5"/>
  <path d="M306.5,201.5c0,0,2.75-2.25,4.25-2.5s4-0.5,4-0.5l3.5,1.25l3.25,0.25l3.5-1.5l3.75-0.75l3.5,0.5l3.25,1.5l2.5,2.25l2.25,2.5l1.5,3.25l0.5,3.5l-0.75,3.75l-1.5,3.5l-2.25,3.25l-2.5,2.5l-3.25,1.5l-3.5,0.5l-3.75-0.75l-3.5-1.5l-3.25-2.25l-2.5-2.5l-1.5-3.25l-0.5-3.5l0.75-3.75l1.5-3.5L306.5,201.5z" fill="#FFFFFF" fill-opacity="0.5"/>
  <path d="M396.5,201.5c0,0,2.75-2.25,4.25-2.5s4-0.5,4-0.5l3.5,1.25l3.25,0.25l3.5-1.5l3.75-0.75l3.5,0.5l3.25,1.5l2.5,2.25l2.25,2.5l1.5,3.25l0.5,3.5l-0.75,3.75l-1.5,3.5l-2.25,3.25l-2.5,2.5l-3.25,1.5l-3.5,0.5l-3.75-0.75l-3.5-1.5l-3.25-2.25l-2.5-2.5l-1.5-3.25l-0.5-3.5l0.75-3.75l1.5-3.5L396.5,201.5z" fill="#FFFFFF" fill-opacity="0.5"/>
  <path d="M486.5,201.5c0,0,2.75-2.25,4.25-2.5s4-0.5,4-0.5l3.5,1.25l3.25,0.25l3.5-1.5l3.75-0.75l3.5,0.5l3.25,1.5l2.5,2.25l2.25,2.5l1.5,3.25l0.5,3.5l-0.75,3.75l-1.5,3.5l-2.25,3.25l-2.5,2.5l-3.25,1.5l-3.5,0.5l-3.75-0.75l-3.5-1.5l-3.25-2.25l-2.5-2.5l-1.5-3.25l-0.5-3.5l0.75-3.75l1.5-3.5L486.5,201.5z" fill="#FFFFFF" fill-opacity="0.5"/>
  <path d="M576.5,201.5c0,0,2.75-2.25,4.25-2.5s4-0.5,4-0.5l3.5,1.25l3.25,0.25l3.5-1.5l3.75-0.75l3.5,0.5l3.25,1.5l2.5,2.25l2.25,2.5l1.5,3.25l0.5,3.5l-0.75,3.75l-1.5,3.5l-2.25,3.25l-2.5,2.5l-3.25,1.5l-3.5,0.5l-3.75-0.75l-3.5-1.5l-3.25-2.25l-2.5-2.5l-1.5-3.25l-0.5-3.5l0.75-3.75l1.5-3.5L576.5,201.5z" fill="#FFFFFF" fill-opacity="0.5"/>
  <path d="M666.5,201.5c0,0,2.75-2.25,4.25-2.5s4-0.5,4-0.5l3.5,1.25l3.25,0.25l3.5-1.5l3.75-0.75l3.5,0.5l3.25,1.5l2.5,2.25l2.25,2.5l1.5,3.25l0.5,3.5l-0.75,3.75l-1.5,3.5l-2.25,3.25l-2.5,2.5l-3.25,1.5l-3.5,0.5l-3.75-0.75l-3.5-1.5l-3.25-2.25l-2.5-2.5l-1.5-3.25l-0.5-3.5l0.75-3.75l1.5-3.5L666.5,201.5z" fill="#FFFFFF" fill-opacity="0.5"/>
  <path d="M156.5,101.5c0,0,2.75-2.25,4.25-2.5s4-0.5,4-0.5l3.5,1.25l3.25,0.25l3.5-1.5l3.75-0.75l3.5,0.5l3.25,1.5l2.5,2.25l2.25,2.5l1.5,3.25l0.5,3.5l-0.75,3.75l-1.5,3.5l-2.25,3.25l-2.5,2.5l-3.25,1.5l-3.5,0.5l-3.75-0.75l-3.5-1.5l-3.25-2.25l-2.5-2.5l-1.5-3.25l-0.5-3.5l0.75-3.75l1.5-3.5L156.5,101.5z" fill="#FFFFFF" fill-opacity="0.5"/>
  <path d="M246.5,101.5c0,0,2.75-2.25,4.25-2.5s4-0.5,4-0.5l3.5,1.25l3.25,0.25l3.5-1.5l3.75-0.75l3.5,0.5l3.25,1.5l2.5,2.25l2.25,2.5l1.5,3.25l0.5,3.5l-0.75,3.75l-1.5,3.5l-2.25,3.25l-2.5,2.5l-3.25,1.5l-3.5,0.5l-3.75-0.75l-3.5-1.5l-3.25-2.25l-2.5-2.5l-1.5-3.25l-0.5-3.5l0.75-3.75l1.5-3.5L246.5,101.5z" fill="#FFFFFF" fill-opacity="0.5"/>
  <path d="M336.5,101.5c0,0,2.75-2.25,4.25-2.5s4-0.5,4-0.5l3.5,1.25l3.25,0.25l3.5-1.5l3.75-0.75l3.5,0.5l3.25,1.5l2.5,2.25l2.25,2.5l1.5,3.25l0.5,3.5l-0.75,3.75l-1.5,3.5l-2.25,3.25l-2.5,2.5l-3.25,1.5l-3.5,0.5l-3.75-0.75l-3.5-1.5l-3.25-2.25l-2.5-2.5l-1.5-3.25l-0.5-3.5l0.75-3.75l1.5-3.5L336.5,101.5z" fill="#FFFFFF" fill-opacity="0.5"/>
  <path d="M426.5,101.5c0,0,2.75-2.25,4.25-2.5s4-0.5,4-0.5l3.5,1.25l3.25,0.25l3.5-1.5l3.75-0.75l3.5,0.5l3.25,1.5l2.5,2.25l2.25,2.5l1.5,3.25l0.5,3.5l-0.75,3.75l-1.5,3.5l-2.25,3.25l-2.5,2.5l-3.25,1.5l-3.5,0.5l-3.75-0.75l-3.5-1.5l-3.25-2.25l-2.5-2.5l-1.5-3.25l-0.5-3.5l0.75-3.75l1.5-3.5L426.5,101.5z" fill="#FFFFFF" fill-opacity="0.5"/>
  <path d="M516.5,101.5c0,0,2.75-2.25,4.25-2.5s4-0.5,4-0.5l3.5,1.25l3.25,0.25l3.5-1.5l3.75-0.75l3.5,0.5l3.25,1.5l2.5,2.25l2.25,2.5l1.5,3.25l0.5,3.5l-0.75,3.75<Thinking>
I need to continue the SVG file content that was cut off. This appears to be part of a world map SVG with path elements. I'll continue from the exact cut-off point and complete the SVG file, then continue with any remaining components or code that might have been cut off.
</Thinking>

l3.5,1.25l3.25,0.25l3.5-1.5l3.75-0.75l3.5,0.5l3.25,1.5l2.5,2.25l2.25,2.5l1.5,3.25l0.5,3.5l-0.75,3.75l-1.5,3.5l-2.25,3.25l-2.5,2.5l-3.25,1.5l-3.5,0.5l-3.75-0.75l-3.5-1.5l-3.25-2.25l-2.5-2.5l-1.5-3.25l-0.5-3.5l0.75-3.75l1.5-3.5L516.5,101.5z" fill="#FFFFFF" fill-opacity="0.5"/>
  <path d="M606.5,101.5c0,0,2.75-2.25,4.25-2.5s4-0.5,4-0.5l3.5,1.25l3.25,0.25l3.5-1.5l3.75-0.75l3.5,0.5l3.25,1.5l2.5,2.25l2.25,2.5l1.5,3.25l0.5,3.5l-0.75,3.75l-1.5,3.5l-2.25,3.25l-2.5,2.5l-3.25,1.5l-3.5,0.5l-3.75-0.75l-3.5-1.5l-3.25-2.25l-2.5-2.5l-1.5-3.25l-0.5-3.5l0.75-3.75l1.5-3.5L606.5,101.5z" fill="#FFFFFF" fill-opacity="0.5"/>
  <path d="M156.5,301.5c0,0,2.75-2.25,4.25-2.5s4-0.5,4-0.5l3.5,1.25l3.25,0.25l3.5-1.5l3.75-0.75l3.5,0.5l3.25,1.5l2.5,2.25l2.25,2.5l1.5,3.25l0.5,3.5l-0.75,3.75l-1.5,3.5l-2.25,3.25l-2.5,2.5l-3.25,1.5l-3.5,0.5l-3.75-0.75l-3.5-1.5l-3.25-2.25l-2.5-2.5l-1.5-3.25l-0.5-3.5l0.75-3.75l1.5-3.5L156.5,301.5z" fill="#FFFFFF" fill-opacity="0.5"/>
  <path d="M246.5,301.5c0,0,2.75-2.25,4.25-2.5s4-0.5,4-0.5l3.5,1.25l3.25,0.25l3.5-1.5l3.75-0.75l3.5,0.5l3.25,1.5l2.5,2.25l2.25,2.5l1.5,3.25l0.5,3.5l-0.75,3.75l-1.5,3.5l-2.25,3.25l-2.5,2.5l-3.25,1.5l-3.5,0.5l-3.75-0.75l-3.5-1.5l-3.25-2.25l-2.5-2.5l-1.5-3.25l-0.5-3.5l0.75-3.75l1.5-3.5L246.5,301.5z" fill="#FFFFFF" fill-opacity="0.5"/>
  <path d="M336.5,301.5c0,0,2.75-2.25,4.25-2.5s4-0.5,4-0.5l3.5,1.25l3.25,0.25l3.5-1.5l3.75-0.75l3.5,0.5l3.25,1.5l2.5,2.25l2.25,2.5l1.5,3.25l0.5,3.5l-0.75,3.75l-1.5,3.5l-2.25,3.25l-2.5,2.5l-3.25,1.5l-3.5,0.5l-3.75-0.75l-3.5-1.5l-3.25-2.25l-2.5-2.5l-1.5-3.25l-0.5-3.5l0.75-3.75l1.5-3.5L336.5,301.5z" fill="#FFFFFF" fill-opacity="0.5"/>
  <path d="M426.5,301.5c0,0,2.75-2.25,4.25-2.5s4-0.5,4-0.5l3.5,1.25l3.25,0.25l3.5-1.5l3.75-0.75l3.5,0.5l3.25,1.5l2.5,2.25l2.25,2.5l1.5,3.25l0.5,3.5l-0.75,3.75l-1.5,3.5l-2.25,3.25l-2.5,2.5l-3.25,1.5l-3.5,0.5l-3.75-0.75l-3.5-1.5l-3.25-2.25l-2.5-2.5l-1.5-3.25l-0.5-3.5l0.75-3.75l1.5-3.5L426.5,301.5z" fill="#FFFFFF" fill-opacity="0.5"/>
  <path d="M516.5,301.5c0,0,2.75-2.25,4.25-2.5s4-0.5,4-0.5l3.5,1.25l3.25,0.25l3.5-1.5l3.75-0.75l3.5,0.5l3.25,1.5l2.5,2.25l2.25,2.5l1.5,3.25l0.5,3.5l-0.75,3.75l-1.5,3.5l-2.25,3.25l-2.5,2.5l-3.25,1.5l-3.5,0.5l-3.75-0.75l-3.5-1.5l-3.25-2.25l-2.5-2.5l-1.5-3.25l-0.5-3.5l0.75-3.75l1.5-3.5L516.5,301.5z" fill="#FFFFFF" fill-opacity="0.5"/>
  <path d="M606.5,301.5c0,0,2.75-2.25,4.25-2.5s4-0.5,4-0.5l3.5,1.25l3.25,0.25l3.5-1.5l3.75-0.75l3.5,0.5l3.25,1.5l2.5,2.25l2.25,2.5l1.5,3.25l0.5,3.5l-0.75,3.75l-1.5,3.5l-2.25,3.25l-2.5,2.5l-3.25,1.5l-3.5,0.5l-3.75-0.75l-3.5-1.5l-3.25-2.25l-2.5-2.5l-1.5-3.25l-0.5-3.5l0.75-3.75l1.5-3.5L606.5,301.5z" fill="#FFFFFF" fill-opacity="0.5"/>
</svg>

